<svg xmlns="http://www.w3.org/2000/svg" viewBox="0 0 474.34 155.32"><defs><style>.cls-1{fill:#ffffff;}.cls-2,.cls-3{fill:none;stroke:#ffffff;stroke-miterlimit:10;}.cls-2{stroke-width:8.21px;}.cls-3{stroke-linecap:round;stroke-width:6.81px;}</style></defs><g id="Capa_2" data-name="Capa 2"><g id="Capa_2-2" data-name="Capa 2"><path class="cls-1" d="M96.32,31.46l1.22,0a56.68,56.68,0,0,1-1.16,113.35H95.17A56.69,56.69,0,0,1,96.32,31.46m0-21a77.66,77.66,0,0,0-1.59,155.3l1.65,0A77.66,77.66,0,0,0,98,10.51c-.56,0-1.11,0-1.66,0Z" transform="translate(0 -10.49)"/><path class="cls-1" d="M23,69.59c.08,3.43.12,8,0,12.78-.33,10.91-1.41,16.45-2.22,19.14C12,97.93,7.44,94.85,7.63,85.43c.15-7,2.83-12.31,15.38-15.84m6.34-9A32.71,32.71,0,0,0,21.7,62C10.86,65,.31,70.56,0,85.27-.33,101.7,11.21,106,21.32,109.93a4.1,4.1,0,0,0,1.47.3c10.25,0,7.62-47,7.62-47s2.66-2.58-1.06-2.58Z" transform="translate(0 -10.49)"/><path class="cls-1" d="M170.45,71.49C182.84,75.54,185.3,81,185.15,88c-.2,9.42-4.87,12.31-13.8,15.52-.69-2.72-1.54-8.31-1.41-19.21.05-4.78.29-9.35.51-12.78m-6.26-9.22c-3.27,0-.72,2.54-.86,2.54s-4.65,47.3,5.78,47.3a4.18,4.18,0,0,0,1.34-.24c10.27-3.5,22-7.31,22.33-23.74.31-14.72-10-20.76-20.7-24.13-4.1-1.28-6.51-1.73-7.89-1.73Z" transform="translate(0 -10.49)"/><ellipse class="cls-2" cx="120.05" cy="67.08" rx="11.91" ry="12.32" transform="translate(45.46 172.12) rotate(-86.35)"/><ellipse class="cls-2" cx="77.88" cy="111.37" rx="11.91" ry="12.32" transform="translate(-38.22 171.52) rotate(-86.35)"/><line class="cls-2" x1="126.7" y1="88.85" x2="134.46" y2="78.46"/><line class="cls-2" x1="56.95" y1="64.05" x2="67.43" y2="75.8"/><path class="cls-3" d="M72.25,52.6c6.6-2.62,11.66.55,12.83,4.58s-3.54,8.46-1.17,13.1c2,4,6.1,6,11.88,4" transform="translate(0 -10.49)"/><path class="cls-3" d="M105.2,99.63c-3.09,6.39-.29,11.67,3.65,13.13s8.69-2.92,13.15-.23c3.84,2.32,5.6,6.52,3.13,12.14" transform="translate(0 -10.49)"/><path class="cls-1" d="M260.55,92.54a32.24,32.24,0,0,1-13-2.59,30.09,30.09,0,0,1-10.39-7.37,34.71,34.71,0,0,1-6.85-11.22,39.59,39.59,0,0,1-2.45-14.15,39.61,39.61,0,0,1,2.45-14.16,34.32,34.32,0,0,1,6.9-11.22,30.63,30.63,0,0,1,10.38-7.37,34.08,34.08,0,0,1,27.19.49,28.26,28.26,0,0,1,10.64,9l-9,9.37a21.68,21.68,0,0,0-6.9-6,17.49,17.49,0,0,0-8.27-2,19,19,0,0,0-7.75,1.56,17.47,17.47,0,0,0-6.12,4.49,21.09,21.09,0,0,0-4,6.93A26.36,26.36,0,0,0,242,57.21a26.34,26.34,0,0,0,1.42,8.88,21.19,21.19,0,0,0,4,6.93,17.47,17.47,0,0,0,6.12,4.49,19,19,0,0,0,7.75,1.56,17.49,17.49,0,0,0,8.27-2,21.21,21.21,0,0,0,6.9-6.1l9,9.37a28.67,28.67,0,0,1-10.64,9.07A31.71,31.71,0,0,1,260.55,92.54Z" transform="translate(0 -10.49)"/><path class="cls-1" d="M285.71,91.37,312.59,23h13.79l27,68.33H338.7L316.64,31.05h5.52L300,91.37Zm13.44-14.64,3.71-12h31l3.79,12Z" transform="translate(0 -10.49)"/><path class="cls-1" d="M379.46,92.54a43.69,43.69,0,0,1-13.87-2.2,30.92,30.92,0,0,1-10.69-5.71l4.74-11.91a33.29,33.29,0,0,0,9.18,5.13,30.24,30.24,0,0,0,10.73,2,19.86,19.86,0,0,0,6.68-.93A7.85,7.85,0,0,0,390,76.34a6.35,6.35,0,0,0,1.2-3.81,5.44,5.44,0,0,0-1.89-4.35,15,15,0,0,0-5-2.63c-2.07-.68-4.36-1.33-6.85-1.95a71.57,71.57,0,0,1-7.5-2.3,30.09,30.09,0,0,1-6.85-3.51,16.34,16.34,0,0,1-5-5.66,18.49,18.49,0,0,1-1.94-9,20.91,20.91,0,0,1,2.8-10.69,19.89,19.89,0,0,1,8.44-7.71q5.65-2.88,14.18-2.88a42.52,42.52,0,0,1,11.2,1.51,30.54,30.54,0,0,1,9.74,4.54l-4.31,12a34.23,34.23,0,0,0-8.44-4,27.71,27.71,0,0,0-8.28-1.32,17.55,17.55,0,0,0-6.63,1.07,8,8,0,0,0-3.71,2.78,7.12,7.12,0,0,0-1.12,4,5.28,5.28,0,0,0,1.9,4.24,14.09,14.09,0,0,0,5,2.59c2.06.65,4.35,1.3,6.85,1.95s5,1.4,7.49,2.25a27.31,27.31,0,0,1,6.86,3.41,16.63,16.63,0,0,1,5,5.66,18.31,18.31,0,0,1,1.93,8.89,20.2,20.2,0,0,1-2.84,10.54,20.54,20.54,0,0,1-8.49,7.71Q388.08,92.54,379.46,92.54Z" transform="translate(0 -10.49)"/><path class="cls-1" d="M406.69,91.37,433.58,23h13.78l27,68.33H459.69L437.63,31.05h5.51L421,91.37Zm13.44-14.64,3.71-12h31l3.79,12Z" transform="translate(0 -10.49)"/><path class="cls-1" d="M234.34,157.61V105.3h15.45a19.24,19.24,0,0,1,9.3,2.09,14.38,14.38,0,0,1,6,6,22.52,22.52,0,0,1,0,18.95,14.39,14.39,0,0,1-6,6.06,19.36,19.36,0,0,1-9.3,2.09H236.06l1.42-1.79v18.9Zm3.14-18.68-1.42-1.87h13.73q7,0,10.57-3.7t3.6-10.42q0-6.81-3.6-10.51t-10.57-3.69H236.06l1.42-1.87Z" transform="translate(0 -10.49)"/><path class="cls-1" d="M268.4,157.61l19.83-52.31h3.14l19.83,52.31h-3.39l-18.72-49.92h1.36l-18.67,49.92Zm7.26-14.72,1-3.21h25.81l1,3.21Z" transform="translate(0 -10.49)"/><path class="cls-1" d="M322.16,154.18h26.61v3.43H319V105.3h28.83v3.44H322.16Zm-.37-24.82h23.35v3.37H321.79Z" transform="translate(0 -10.49)"/><path class="cls-1" d="M360.23,157.61V105.3h3.14v48.88h24.82v3.43Z" transform="translate(0 -10.49)"/><path class="cls-1" d="M396.26,157.61V105.3h3.14v48.88h24.82v3.43Z" transform="translate(0 -10.49)"/><path class="cls-1" d="M425.08,157.61l19.83-52.31h3.14l19.83,52.31H464.5l-18.73-49.92h1.36l-18.66,49.92Zm7.27-14.72,1-3.21H459.2l1.05,3.21Z" transform="translate(0 -10.49)"/></g></g></svg>